<svg width="80" height="80" viewBox="0 0 80 80" fill="none" xmlns="http://www.w3.org/2000/svg">
<rect x="0.5" y="0.5" width="79" height="79" rx="39.5" fill="url(#paint0_linear_25_2685)"/>
<rect x="0.5" y="0.5" width="79" height="79" rx="39.5" stroke="url(#paint1_linear_25_2685)"/>
<g filter="url(#filter0_d_25_2685)">
<rect x="16" y="16" width="48" height="48" rx="24" fill="white" shape-rendering="crispEdges"/>
<rect x="16.5" y="16.5" width="47" height="47" rx="23.5" stroke="#DFE1E7" shape-rendering="crispEdges"/>
<path d="M41.6667 41.8767V48.3333H33.3333C33.3333 44.6514 36.3181 41.6667 40 41.6667C40.5755 41.6667 41.134 41.7396 41.6667 41.8767ZM40 40.8333C37.2375 40.8333 35 38.5958 35 35.8333C35 33.0708 37.2375 30.8333 40 30.8333C42.7625 30.8333 45 33.0708 45 35.8333C45 38.5958 42.7625 40.8333 40 40.8333ZM45 44.1667V41.6667H46.6667V44.1667H49.1667V45.8333H46.6667V48.3333H45V45.8333H42.5V44.1667H45Z" fill="#272835"/>
</g>
<defs>
<filter id="filter0_d_25_2685" x="14" y="15" width="52" height="52" filterUnits="userSpaceOnUse" color-interpolation-filters="sRGB">
<feFlood flood-opacity="0" result="BackgroundImageFix"/>
<feColorMatrix in="SourceAlpha" type="matrix" values="0 0 0 0 0 0 0 0 0 0 0 0 0 0 0 0 0 0 127 0" result="hardAlpha"/>
<feOffset dy="1"/>
<feGaussianBlur stdDeviation="1"/>
<feComposite in2="hardAlpha" operator="out"/>
<feColorMatrix type="matrix" values="0 0 0 0 0.0509804 0 0 0 0 0.0509804 0 0 0 0 0.0705882 0 0 0 0.06 0"/>
<feBlend mode="normal" in2="BackgroundImageFix" result="effect1_dropShadow_25_2685"/>
<feBlend mode="normal" in="SourceGraphic" in2="effect1_dropShadow_25_2685" result="shape"/>
</filter>
<linearGradient id="paint0_linear_25_2685" x1="40" y1="0" x2="40" y2="80" gradientUnits="userSpaceOnUse">
<stop stop-color="#ECEFF3"/>
<stop offset="0.0001" stop-color="#ECEFF3"/>
<stop offset="1" stop-color="#ECEFF3" stop-opacity="0"/>
</linearGradient>
<linearGradient id="paint1_linear_25_2685" x1="40" y1="0" x2="40" y2="80" gradientUnits="userSpaceOnUse">
<stop stop-color="#DFE1E7"/>
<stop offset="1" stop-color="#DFE1E7" stop-opacity="0"/>
</linearGradient>
</defs>
</svg>
